<?xml version="1.0" encoding="utf-8"?>
<!-- Generator: Adobe Illustrator 24.2.0, SVG Export Plug-In . SVG Version: 6.00 Build 0)  -->
<svg version="1.1" id="Layer_1" xmlns="http://www.w3.org/2000/svg" xmlns:xlink="http://www.w3.org/1999/xlink" x="0px" y="0px"
	 viewBox="0 0 764.65 151.2" style="enable-background:new 0 0 764.65 151.2;" xml:space="preserve">
<style type="text/css">
	.st0{fill:#D91B5C;}
</style>
<g>
	<g>
		<path class="st0" d="M362.96,113.93l-4.99,5.92l-1.55-1.35l5.16-5.75c-0.82-0.76-1.44-1.44-2.23-2.14l1.15-1.15
			c1.96,1.86,3.69,3.29,5.86,5.04l-0.99,1.27C364.57,115.15,363.76,114.55,362.96,113.93 M352.97,99.21l-8.09,4.72
			c0.29,0.57,0.6,1.23,0.96,1.78l8.11-4.74C353.55,100.26,353.32,99.88,352.97,99.21 M358.16,106.75l-4.38,3.79l2.23-6.49
			c-0.4-0.56-0.58-0.94-0.99-1.45l-7.85,5.33c0.35,0.53,0.78,1.01,1.15,1.56l4.72-3.27l-2.22,6.54c0.38,0.43,0.77,1.09,1.31,1.53
			l7.27-6.23C359,107.62,358.52,107.24,358.16,106.75 M368.82,118.36c1.28,0.69,2.52,1.42,3.92,2.08l0.84-1.39
			c-1.93-1-3.75-2.14-5.37-3.27l-5.33,7.83c2.02,1.34,3.87,2.46,5.95,3.66l0.86-1.38l-4.3-2.53l1.45-2.04l2.85,1.71l0.83-1.33
			c-0.91-0.5-1.87-1.08-2.87-1.69L368.82,118.36z M395.19,89.19c-7.37,0-13.39-6.05-13.39-13.4c0-7.4,6.02-13.42,13.39-13.42
			c7.42,0,13.38,6.01,13.38,13.42C408.58,83.17,402.58,89.19,395.19,89.19 M395.36,84.76c4.89,0,8.91-4.02,8.91-8.91
			c0-4.07-2.83-7.6-6.72-8.57c-0.05-0.4-0.16-2.26-0.16-2.26h-4.49c0,0-0.1,2.02-0.14,2.42c-3.73,1.13-6.25,4.53-6.25,8.41
			C386.51,80.74,390.53,84.76,395.36,84.76 M375.68,25.19v-0.44c-0.05-2.42,1.81-4.42,4.25-4.62c2.58-0.25,4.87,1.65,5.09,4.24v0.38
			c0,2.42-1.83,4.49-4.31,4.72C378.2,29.69,375.9,27.8,375.68,25.19 M377.4,25.02c0.13,1.67,1.6,2.88,3.21,2.75
			c1.58-0.16,2.77-1.43,2.77-3.02c0.06-0.08,0-0.17,0-0.27c-0.14-1.68-1.58-2.85-3.25-2.7c-1.59,0.12-2.78,1.38-2.72,2.97V25.02z
			 M396.9,27.34c-0.79-0.01-1.15-0.01-1.92-0.01l2.34-4.84l2.12-4.4l2.1,0.22l1.1,4.18l1.53,5.62c-0.71-0.13-1.26-0.24-1.92-0.28
			l-0.54-1.76c-1.39-0.22-2.64-0.28-3.93-0.34L396.9,27.34z M398.46,24.15c1.02,0.05,1.97,0.16,2.93,0.3l-0.5-1.96l-0.63-2.02
			l-0.95,2.02L398.46,24.15z M389.12,19.97l0.83,7.67l2.01-0.21l-0.79-7.61l3.05-0.19l-0.12-1.71c-3.4,0.2-4.8,0.33-8.17,0.84
			l0.23,1.62L389.12,19.97z M389.44,123.81l-0.68,5.72l-2.75-6.28c-0.64-0.13-1.05-0.29-1.7-0.4l-2.16,9.26
			c0.67,0.18,1.31,0.25,2,0.37l1.16-5.69l2.79,6.34c0.63,0.1,1.35,0.29,2.09,0.28l1.03-9.56
			C390.67,123.82,390.03,123.91,389.44,123.81 M443.83,103.93l-6.88-3.79l-0.88,1.58l8.25,4.61l3.18-5.7l-1.42-0.76L443.83,103.93z
			 M433.45,105.32l9.36,3.08c-0.22,0.28-0.39,0.54-0.59,0.82c-0.16,0.21-0.36,0.42-0.49,0.7l-1.64-0.59l-2.56,3.19l0.93,1.46
			c-0.38,0.43-0.81,0.9-1.3,1.39l-3.71-6.15l-1.37-2.27L433.45,105.32z M434.52,107.46l1.11,1.75l1.02,1.77l1.37-1.77l0.36-0.44
			L434.52,107.46z M424.68,119.98c0.4,0.7,0.59,1.51,0.63,2.34c0,0.65-0.14,1.31-0.41,1.91c-0.44,0.87-1.09,1.65-1.99,2.17
			c-2.2,1.28-5.04,0.52-6.38-1.74c-0.05-0.13-0.11-0.27-0.19-0.43c-0.27-0.6-0.4-1.27-0.45-1.91c0.06-1.67,0.87-3.2,2.36-4.07
			C420.48,116.99,423.36,117.74,424.68,119.98 M423.62,122.32c0-0.56-0.14-1.07-0.41-1.55c-0.78-1.45-2.63-1.92-4.07-1.09
			c-1.02,0.55-1.54,1.58-1.54,2.65c0.03,0.49,0.15,1.03,0.44,1.49c0.08,0.14,0.18,0.29,0.32,0.45c0.9,1.08,2.5,1.33,3.73,0.62
			c0.34-0.17,0.61-0.39,0.82-0.62C423.36,123.72,423.62,122.99,423.62,122.32 M428.14,111.13l3.89,4.2l-6.54-1.93
			c-0.54,0.41-0.91,0.56-1.39,0.98l5.69,7.65c0.48-0.38,0.99-0.84,1.44-1.23l-3.45-4.6l6.6,1.99c0.45-0.39,1.1-0.84,1.55-1.4
			l-6.59-6.96C429,110.21,428.59,110.71,428.14,111.13 M470.04,75.84c0,0.87-0.04,1.75-0.14,2.45l-0.02,0.19l-0.2,0.1
			c-3.18,1.89-7.29,2.97-11.41,3.08c-0.1,0.52-0.55,4.24-0.62,4.77c3.84,1.11,7.57,3.21,10.16,5.89l0.11,0.17v0.17
			c-0.2,1.46-0.72,3.43-1.3,4.71l-0.07,0.2l-0.19,0.03c-3.6,1.04-7.85,1-11.77,0.03c-0.19,0.49-1.64,3.95-1.79,4.45
			c3.44,2.17,6.48,5.16,8.2,8.36l0.09,0.18l-0.06,0.19c-0.54,1.27-1.54,3.11-2.44,4.21l-0.1,0.17h-0.23
			c-3.68,0.04-7.78-1.05-11.37-3.05c-0.33,0.43-2.72,3.59-3.05,4.02c2.82,2.91,4.97,6.6,5.83,10.23l0.06,0.19l-0.11,0.13
			c-0.82,1.11-2.33,2.59-3.42,3.47l-0.13,0.11l-0.27-0.05c-3.54-0.94-7.28-3.08-10.18-5.89c-0.43,0.32-3.4,2.64-3.84,2.97
			c1.9,3.48,3.05,7.48,3.05,11.1v0.5l-0.22,0.12c-1.09,0.88-2.91,1.94-4.21,2.47l-0.13,0.05l-0.21-0.07
			c-3.18-1.85-6.24-4.88-8.32-8.35c-0.5,0.22-4.11,1.77-4.61,1.98c0.49,1.93,0.79,3.95,0.84,5.95c0,2.02-0.35,4.03-0.84,5.85
			l-0.03,0.18l-0.19,0.11c-1.21,0.5-3.25,1.01-4.67,1.26l-0.22,0.03l-0.12-0.15c-2.74-2.61-4.84-6.32-5.95-10.2
			c-0.49,0.04-4.23,0.54-4.76,0.65c-0.06,4.07-1.18,8.19-3.12,11.38l-0.1,0.17l-0.22,0.03c-1.3,0.2-3.38,0.2-4.8,0l-0.17-0.03
			l-0.13-0.17c-1.87-3.2-2.99-7.32-3.08-11.38c-0.56-0.05-4.5-0.62-5.05-0.65c-1.08,3.85-3.2,7.54-5.87,10.18l-0.14,0.14l-0.22-0.03
			c-1.46-0.22-3.38-0.78-4.67-1.31l-0.15-0.08l-0.07-0.16c-0.55-1.82-0.83-3.85-0.83-5.87c0-1.98,0.28-3.96,0.78-5.89
			c-0.5-0.22-3.91-1.6-4.4-1.82c-2.11,3.53-5.15,6.59-8.37,8.38l-0.17,0.1l-0.2-0.05c-1.33-0.59-3.08-1.6-4.22-2.45l-0.14-0.14
			v-0.38c0-3.66,1.11-7.69,3.02-11.22c-0.42-0.33-3.6-2.74-4.04-3.07c-2.91,2.81-6.62,4.92-10.21,5.84l-0.18,0.06l-0.2-0.13
			c-1.1-0.88-2.51-2.31-3.39-3.43l-0.12-0.19l0.05-0.19c0.95-3.61,3.1-7.31,5.89-10.17c-0.32-0.43-2.73-3.55-3.07-4.02
			c-3.55,1.99-7.69,3.14-11.37,3.04h-0.2l-0.13-0.13c-0.86-1.14-1.89-2.96-2.44-4.24l-0.08-0.19l0.08-0.17
			c1.85-3.24,4.88-6.23,8.33-8.31c-0.22-0.53-1.7-4.01-1.95-4.51c-3.93,0.98-8.2,1.01-11.79,0l-0.17-0.05l-0.11-0.16
			c-0.48-1.21-1.02-3.25-1.24-4.68l-0.04-0.23l0.13-0.17c2.61-2.66,6.29-4.77,10.22-5.94c-0.04-0.55-0.62-4.51-0.68-5.06
			c-4.1-0.05-8.23-1.11-11.43-3.02l-0.16-0.11l-0.01-0.22c-0.09-0.67-0.12-1.54-0.12-2.42c0-0.86,0.03-1.71,0.12-2.42l0.01-0.22
			l0.16-0.09c3.21-1.89,7.33-2.99,11.43-3.05c0.09-0.54,0.57-4.39,0.63-4.91c-3.89-1.11-7.6-3.24-10.23-5.9l-0.11-0.13l0.04-0.21
			c0.17-1.48,0.73-3.46,1.28-4.69l0.06-0.18l0.19-0.05c3.55-1.05,7.84-1.02,11.78-0.05c0.22-0.48,1.66-3.95,1.87-4.47
			c-3.48-2.11-6.54-5.1-8.36-8.34l-0.09-0.21l0.09-0.19c0.57-1.3,1.6-3.06,2.41-4.16l0.13-0.17h0.22c3.72-0.05,7.83,1.08,11.37,3.05
			c0.33-0.4,2.75-3.66,3.08-4.1c-2.81-2.93-4.94-6.6-5.85-10.23l-0.04-0.16l0.08-0.16c0.9-1.13,2.39-2.59,3.48-3.45l0.17-0.11
			l0.16,0.03c3.66,0.94,7.35,3.11,10.22,5.91c0.42-0.33,3.29-2.55,3.72-2.87c-1.98-3.46-3.08-7.5-3.08-11.08v-0.54l0.18-0.13
			c1.08-0.84,2.9-1.89,4.2-2.42l0.14-0.09l0.22,0.09c3.2,1.81,6.22,4.84,8.32,8.32c0.51-0.19,4.24-1.81,4.76-2.02
			c-0.49-1.93-0.79-3.94-0.76-5.93c0-2.06,0.25-4.03,0.8-5.84l0.03-0.23l0.19-0.05c1.21-0.51,3.22-1.05,4.63-1.26l0.23-0.03
			l0.16,0.14c2.67,2.59,4.79,6.31,5.92,10.23c0.55-0.06,4.48-0.55,5-0.65c0.09-4.03,1.19-8.16,3.12-11.36l0.08-0.17l0.2-0.05
			c1.41-0.17,3.48-0.17,4.84,0l0.18,0.05l0.11,0.17c1.94,3.2,3.06,7.32,3.06,11.32c0.59,0.13,4.43,0.63,4.98,0.68
			c1.15-3.92,3.26-7.6,5.94-10.21l0.12-0.13l0.18,0.05c1.46,0.16,3.44,0.7,4.71,1.26l0.16,0.06l0.06,0.22
			c0.55,1.8,0.81,3.75,0.81,5.79c-0.03,2.01-0.33,4.03-0.81,5.97c0.49,0.2,4.22,1.76,4.74,1.98c2.07-3.47,5.05-6.48,8.29-8.32
			l0.19-0.09l0.19,0.09c1.28,0.54,3.08,1.58,4.18,2.44l0.16,0.1v0.5c0,3.68-1.14,7.7-3.06,11.12c0.41,0.32,3.5,2.73,3.96,3.09
			c2.9-2.82,6.6-4.98,10.23-5.87l0.16-0.09l0.16,0.17c1.1,0.81,2.57,2.35,3.41,3.45l0.15,0.16l-0.06,0.19
			c-0.93,3.64-3.12,7.33-5.91,10.22c0.32,0.45,2.65,3.5,3,3.94c3.62-1.95,7.71-3.06,11.42-2.99h0.17l0.12,0.16
			c0.9,1.15,1.93,2.94,2.43,4.16l0.12,0.24l-0.12,0.18c-1.84,3.21-4.87,6.18-8.34,8.3c0.21,0.53,1.62,4.01,1.89,4.5
			c3.89-0.98,8.18-1,11.72,0l0.21,0.04l0.08,0.2c0.49,1.23,1.07,3.24,1.26,4.71l0.03,0.18l-0.15,0.15c-2.6,2.7-6.31,4.81-10.21,5.91
			c0.08,0.54,0.56,4.34,0.66,4.88c4.1,0.09,8.2,1.19,11.37,3.07l0.2,0.12l0.02,0.19C469.99,74.11,470.04,74.95,470.04,75.84
			 M357.68,32.21l6.14,6.84c0.86,0.92,1.8,0.81,3.04-0.16c7.76-6.09,17.72-9.69,28.33-9.69c10.62,0,20.59,3.59,28.43,9.69
			c1.23,0.9,2.14,1.08,3.04,0.16l6.15-6.84c0.7-0.76,0.7-1.8-0.64-2.92c-10.3-8.02-23.02-12.97-37-12.97
			c-13.9,0-26.8,4.95-36.92,13.01C356.93,30.41,356.99,31.46,357.68,32.21 M358.09,60.99c-0.68-0.44-1.4-0.94-1.99-0.68
			c-0.48,0.15-0.83,0.65-1.08,1.47c-2.88,9.88-2.88,18.26,0,28.02c0.19,0.63,0.41,1.27,0.99,1.43c0.47,0.2,1.17,0,2.08-0.63
			l19.02-12.95c0.71-0.47,1.14-1.15,1.14-1.83c0-0.74-0.43-1.38-1.14-1.88L358.09,60.99z M362.25,49.65
			c0.09,0.69,0.88,1.05,1.57,1.37l20.72,10.07c0.82,0.39,1.59,0.39,2.22,0.07c0.58-0.38,0.96-1.04,1.01-1.93l1.67-22.99
			c0.09-1.11-0.06-1.76-0.46-2.1c-0.44-0.38-1.09-0.27-1.71-0.16c-9.93,2.39-17.17,6.59-24.31,14.03
			C362.39,48.66,362.12,49.21,362.25,49.65 M362.55,102.22c0,0.39,0.27,0.88,0.77,1.41c7.14,7.51,14.36,11.68,24.29,14.01
			c0.64,0.19,1.26,0.29,1.7-0.06c0.45-0.33,0.58-1.02,0.5-2.11c0-0.03-1.69-23.04-1.69-23.04c-0.07-0.87-0.4-1.54-1.01-1.89
			c-0.62-0.36-1.39-0.36-2.22,0.01l-20.7,10.08c-0.72,0.34-1.51,0.72-1.61,1.39C362.58,102.07,362.55,102.16,362.55,102.22
			 M395.19,90.63c8.2,0,14.86-6.65,14.86-14.85c0-8.19-6.66-14.85-14.86-14.88c-8.19,0-14.85,6.69-14.85,14.88
			C380.35,83.98,387,90.63,395.19,90.63 M401.48,117.25c0.35,0.28,0.93,0.36,1.81,0.14c9.9-2.38,17.16-6.57,24.24-14
			c0.42-0.49,0.88-0.99,0.75-1.55c-0.13-0.54-0.58-1.02-1.55-1.47l-20.75-10.07c-0.79-0.37-1.55-0.37-2.18-0.04
			c-0.61,0.39-0.98,1.04-1.04,1.95l-1.68,22.97C401.05,115.93,400.96,116.78,401.48,117.25 M432.42,90.47
			c0.62,0.4,1.33,0.88,1.98,0.66c0.44-0.13,0.82-0.62,1.06-1.49c2.9-9.85,2.9-18.26,0-27.99c-0.18-0.61-0.46-1.24-0.97-1.47
			c-0.52-0.19-1.17,0.03-2.1,0.66l-19.03,12.94c-0.74,0.5-1.11,1.17-1.11,1.87c0,0.69,0.38,1.37,1.11,1.86L432.42,90.47z
			 M428.23,49.29c0.02-0.39-0.22-0.89-0.77-1.43c-7.07-7.48-14.33-11.66-24.29-14.03c-0.56-0.15-1.21-0.28-1.64,0.1
			c-0.45,0.36-0.57,1.05-0.48,2.08l1.64,23.04c0.05,0.87,0.45,1.57,1.03,1.92c0.64,0.36,1.4,0.3,2.2-0.09l20.75-10.01
			c0.67-0.32,1.42-0.67,1.57-1.38C428.23,49.43,428.25,49.38,428.23,49.29 M339.63,90.41l8.83-2.56c0.83-0.24,1.51-1.11,1.44-2.19
			c-3.17-16.45,0.86-29.78,10.5-40.47c0.98-0.69,1.08-2.12,0.15-3.1l-6.42-6.45c-0.62-0.71-1.76-0.71-2.73,0.28
			c-12.3,12.95-18.52,32.82-13.96,53.14C337.7,90.02,338.47,90.74,339.63,90.41 M449.42,95.13l-8.85-3.02
			c-0.46-0.17-1.67-0.17-2.3,1.39c-7.15,17.15-23.79,28.88-43.06,28.88c-19.3,0-36.25-12-43.09-29.15
			c-0.51-1.29-1.75-1.29-2.22-1.12l-8.8,3.02c-0.96,0.34-1.53,1.19-1.03,2.42c8.65,22.07,30.15,37.65,55.14,37.65
			c24.98,0,46.59-15.69,55.26-37.74C450.91,96.3,450.37,95.48,449.42,95.13 M439.18,35.82c-0.87-1.06-2.3-0.9-2.72-0.16l-6.4,6.43
			c-0.94,0.98-0.85,2.4,0.13,3.1c9.66,10.69,13.69,23.99,10.52,40.47c-0.07,1.08,0.61,1.95,1.45,2.19l8.85,2.56
			c1.18,0.33,1.93-0.38,2.18-1.39C457.75,68.73,451.52,48.79,439.18,35.82 M418.57,33.42l2.04-3.92l5.5-2.55
			c-0.58-0.41-1.2-0.7-1.78-1.09l-3.79,1.72l-0.7-4.11c-0.79-0.37-1.27-0.54-2.09-0.87l1.1,5.98l-2.04,3.87L418.57,33.42z
			 M408.28,122.39c-2.74,0.6-4.85,1.1-7.57,1.52l0.25,1.58c1.01-0.16,1.93-0.28,2.99-0.41l1.37,7.61l2.02-0.38l-1.64-7.58
			c1.04-0.26,1.99-0.52,3.03-0.76L408.28,122.39z M381.34,123.72v0.51c-0.14,1.26-1,2.53-2.38,2.69l0.32,4.39
			c-0.64-0.15-1.37-0.36-2.05-0.65l-0.07-4.13l-1.85-0.79l-1.5,3.64c-0.61-0.2-1.22-0.4-1.81-0.69l1.9-4.43l0.23-0.55l1.55-3.66
			l4.22,1.63C380.84,122.03,381.27,122.86,381.34,123.72 M379.57,123.72c-0.06-0.26-0.16-0.47-0.49-0.62l-2.36-0.87l-0.53,1.49
			l-0.19,0.55l-0.02,0.03l2.15,0.81c0.59,0.26,1.16-0.26,1.37-0.84C379.57,124.11,379.64,123.91,379.57,123.72 M408.22,29.07
			c-0.75-0.22-1.31-0.31-2.14-0.55l1.53-5.22l1.12-3.72c1.61,0.4,3.15,0.92,4.68,1.42c0.87,0.27,1.33,1.25,1.42,2.3
			c0.06,1.42-0.65,2.96-2.08,3.29l0.56,4.2c-0.67-0.28-1.17-0.49-1.92-0.78l-0.49-3.67l-1.8-0.55L408.22,29.07z M409.51,24.15
			l2.11,0.68c0.58,0.17,1.34-0.74,1.34-1.52c0-0.37-0.13-0.71-0.63-0.82c-0.78-0.3-1.31-0.43-2.16-0.65l-0.43,1.47L409.51,24.15z
			 M399.28,128.19l2.04,4.95c-0.67,0.03-1.29,0.1-1.88,0.16l-0.63-1.6l-4.08,0.11l-0.47,1.67c-0.65-0.06-1.26-0.08-1.91-0.08
			l1.76-5.22l1.25-3.96l0.06-0.13l2.08-0.09l0.11,0.25L399.28,128.19z M398.04,129.99l-0.73-1.8l-0.74-1.95l-0.64,1.95l-0.63,1.92
			L398.04,129.99z M410.51,121.59l3.12,8.9c0.61-0.21,1.26-0.4,1.87-0.66l-3.02-8.86C411.64,121.25,411.26,121.37,410.51,121.59
			 M365.26,27.72l-0.52-0.94c1.37-0.87,2.85-1.62,4.27-2.38c1.67-0.92,4.03,1.31,3.87,3.32c-0.03,0.35-0.13,0.68-0.34,1l3.42,2.49
			c-0.64,0.3-1.13,0.56-1.9,0.89l-3-2.19l-1.65,0.89l1.76,2.91c-0.68,0.43-1.1,0.7-1.89,1.17L365.26,27.72z M367.32,27.27l0.26,0.44
			l0.95,1.65l1.98-1.04c0.18-0.09,0.29-0.32,0.32-0.61c0.04-0.89-0.61-2.1-1.54-1.54C368.56,26.56,368.12,26.82,367.32,27.27"/>
		<g>
			<path class="st0" d="M269.82,92.35l0.21,5.38c0.03,0.82-0.55,1.53-1.36,1.65c-3.14,0.5-8.14,1.64-13.03,1.64
				c-13.23,0-19.14-6.79-19.14-22.03h0.01c0-0.11-0.01-0.22-0.01-0.33c0-15.23,5.9-22.03,19.14-22.03c4.89,0,9.89,1.14,13.03,1.64
				c0.8,0.12,1.39,0.83,1.36,1.65l-0.21,5.38c-0.02,0.44-0.22,0.86-0.54,1.15c-0.33,0.29-0.78,0.43-1.22,0.39
				c-3.51-0.32-7.8-1.36-12.41-1.36c-6.85,0-9.28,3.45-9.28,13.18c0,0.37,0.01,0.73,0.01,1.09c0,0.21,0,0.43,0.01,0.63
				c0.01,0.31,0.02,0.61,0.04,0.91c0.01,0.28,0.02,0.56,0.05,0.83c0.01,0.15,0.02,0.29,0.03,0.43c0.59,7.03,3.2,9.62,9.14,9.62
				c4.62,0,8.9-1.05,12.41-1.36c0.44-0.05,0.88,0.09,1.22,0.38C269.61,91.49,269.81,91.91,269.82,92.35 M187.68,57.34
				c-4.29,0.26-8.5,2.7-11.13,4.57v-2.64c0-0.89-0.72-1.61-1.62-1.61h-6.48c-0.89,0-1.62,0.72-1.62,1.61v39.22
				c0,0.89,0.72,1.61,1.62,1.61h6.48c0.89,0,1.62-0.72,1.62-1.61V71.38c1.46-1.22,5.98-4.61,11.37-5.08
				c0.83-0.07,1.47-0.77,1.47-1.6v-5.75c0-0.44-0.18-0.86-0.51-1.17C188.57,57.46,188.12,57.3,187.68,57.34 M210.31,81.72
				c-3.81,0.36-5.62,2.1-5.62,5.45c0,2.06,0.57,5.54,4.34,5.54c4.48,0,10.57-1.69,10.63-1.71v-9.77L210.31,81.72z M229.37,71.01
				v28.14c0,0.47-0.21,0.91-0.55,1.22c-0.36,0.31-0.83,0.44-1.28,0.38c-3.29-0.46-4.86-1.49-6.42-2.69
				c-0.07,0.03-7.35,2.97-13.86,2.97c-7.84,0-12.34-4.95-12.34-13.59c0-8.44,4.12-12.18,14.21-12.93l10.54-0.85v-2.56
				c0-3.24-1.92-5.1-5.28-5.1c-4.62,0-11.21,0.54-14.72,0.86c-0.44,0.05-0.88-0.1-1.22-0.39c-0.32-0.29-0.53-0.71-0.55-1.15
				l-0.21-5.38c-0.03-0.82,0.55-1.53,1.36-1.65c3.14-0.5,10.96-1.64,15.85-1.64C224.77,56.64,229.37,61.21,229.37,71.01
				 M137.16,81.72c-3.81,0.36-5.62,2.1-5.62,5.45c0,2.06,0.57,5.54,4.34,5.54c4.48,0,10.57-1.69,10.63-1.71v-9.77L137.16,81.72z
				 M156.22,71.01v28.14c0,0.47-0.2,0.91-0.55,1.22c-0.36,0.31-0.83,0.44-1.28,0.38c-3.29-0.46-4.86-1.49-6.42-2.69
				c-0.06,0.03-7.35,2.97-13.86,2.97c-7.84,0-12.33-4.95-12.33-13.59c0-8.44,4.11-12.18,14.21-12.93l10.54-0.85v-2.56
				c0-3.24-1.92-5.1-5.27-5.1c-4.62,0-11.21,0.54-14.72,0.86c-0.44,0.05-0.88-0.1-1.22-0.39c-0.32-0.29-0.53-0.71-0.54-1.15
				l-0.21-5.38c-0.03-0.82,0.55-1.53,1.36-1.65c3.14-0.5,10.96-1.64,15.84-1.64C151.62,56.64,156.22,61.21,156.22,71.01
				 M21.57,50.77h-3.54c-3.96,0-6.22,0.3-7.36,0.53v16.76c1.89,0.13,5.53,0.32,10.43,0.27c6.32-0.07,10.24-3.42,10.24-8.75
				C31.35,55.33,28.78,50.77,21.57,50.77 M41.97,97.83c0.22,0.5,0.17,1.07-0.12,1.53c-0.3,0.46-0.8,0.73-1.36,0.73h-7.52
				c-0.63,0-1.22-0.38-1.47-0.96l-9.63-21.68c-4.79-0.03-8.95-0.29-11.2-0.45v21.47c0,0.89-0.71,1.61-1.61,1.61H2.34
				c-0.89,0-1.61-0.72-1.61-1.61V44.11c0-0.82,0.62-1.51,1.44-1.6c8.62-0.97,15.53-1.07,18.1-1.07c0.88,0,1.36,0,1.36,0
				c16.55,0,20.03,9.78,20.03,17.97c0,6.84-3.27,11.78-9.99,15.12L41.97,97.83z M302.14,93.21l0.28,5.33
				c0.04,0.8-0.52,1.51-1.31,1.66c-2.26,0.42-5.36,0.92-7.3,0.92c-9.77,0-12.75-3.74-12.75-15.99V66.42h-3.75
				c-0.89,0-1.61-0.72-1.61-1.62v-5.53c0-0.89,0.72-1.61,1.61-1.61h3.75v-6.58c0-0.75,0.5-1.39,1.22-1.57l6.48-1.58
				c0.48-0.11,0.98-0.01,1.37,0.29c0.39,0.31,0.62,0.77,0.62,1.27v8.16h9.86c0.9,0,1.61,0.72,1.61,1.61v5.53
				c0,0.89-0.71,1.62-1.61,1.62h-9.86v17.35c0,6,0.21,8.08,4.42,8.08c1.55,0,3.98-0.11,5.29-0.18
				C301.33,91.66,302.1,92.31,302.14,93.21 M76.2,78.67c0-9.49-2.58-13.18-9.19-13.18c-6.85,0-9.27,3.45-9.27,13.18
				c0,8.83,1.48,13.6,9.27,13.6C74.69,92.26,76.2,87.28,76.2,78.67 M86.06,78.67c0,15.46-5.87,22.35-19.05,22.35
				c-13.23,0-19.14-6.9-19.14-22.35c0-15.23,5.91-22.03,19.14-22.03C80.01,56.64,86.06,63.63,86.06,78.67 M116.66,93.21l0.28,5.33
				c0.04,0.8-0.52,1.51-1.31,1.66c-2.25,0.42-5.36,0.92-7.3,0.92c-9.77,0-12.75-3.74-12.75-15.99V66.42h-3.75
				c-0.89,0-1.62-0.72-1.62-1.62v-5.53c0-0.89,0.72-1.61,1.62-1.61h3.75v-6.58c0-0.75,0.5-1.39,1.22-1.57l6.48-1.58
				c0.48-0.11,0.98-0.01,1.37,0.29c0.39,0.31,0.63,0.77,0.63,1.27v8.16h9.86c0.9,0,1.62,0.72,1.62,1.61v5.53
				c0,0.89-0.71,1.62-1.62,1.62h-9.86v17.35c0,6,0.21,8.08,4.42,8.08c1.56,0,3.98-0.11,5.29-0.18
				C115.85,91.66,116.62,92.31,116.66,93.21"/>
		</g>
	</g>
	<rect x="503.73" y="0.67" class="st0" width="2.08" height="149.86"/>
	<g>
		<g>
			<path class="st0" d="M544.79,100.13V41.2h7.78v24.2h30.58V41.2h7.78v58.92h-7.78V72.35h-30.58v27.77H544.79z"/>
			<path class="st0" d="M627.49,94.86c-2.68,2.28-5.25,3.89-7.72,4.82c-2.47,0.94-5.13,1.41-7.97,1.41c-4.68,0-8.28-1.15-10.79-3.44
				c-2.51-2.29-3.77-5.22-3.77-8.78c0-2.09,0.47-4,1.42-5.73c0.95-1.73,2.19-3.12,3.73-4.16c1.54-1.05,3.27-1.83,5.2-2.37
				c1.42-0.38,3.56-0.74,6.42-1.09c5.83-0.7,10.12-1.53,12.88-2.49c0.03-0.99,0.04-1.62,0.04-1.89c0-2.95-0.68-5.02-2.05-6.23
				c-1.85-1.63-4.59-2.45-8.23-2.45c-3.4,0-5.91,0.6-7.52,1.79c-1.62,1.19-2.82,3.3-3.59,6.33l-7.06-0.96
				c0.64-3.03,1.7-5.47,3.17-7.34c1.47-1.86,3.6-3.3,6.38-4.3c2.78-1,6.01-1.51,9.67-1.51c3.64,0,6.59,0.43,8.87,1.29
				c2.27,0.86,3.95,1.94,5.02,3.24c1.07,1.3,1.82,2.94,2.25,4.92c0.24,1.23,0.36,3.46,0.36,6.67v9.65c0,6.73,0.15,10.98,0.46,12.76
				c0.31,1.78,0.92,3.49,1.83,5.13h-7.54C628.19,98.63,627.7,96.87,627.49,94.86z M626.89,78.7c-2.62,1.07-6.55,1.98-11.8,2.73
				c-2.97,0.43-5.07,0.91-6.3,1.45c-1.23,0.54-2.18,1.32-2.85,2.35c-0.67,1.03-1,2.18-1,3.44c0,1.93,0.73,3.54,2.19,4.82
				c1.46,1.29,3.59,1.93,6.4,1.93c2.78,0,5.26-0.61,7.42-1.83c2.17-1.22,3.76-2.89,4.77-5c0.78-1.63,1.16-4.05,1.16-7.23V78.7z"/>
			<path class="st0" d="M643.58,100.13V41.2h7.22v58.92H643.58z"/>
			<path class="st0" d="M678.18,92.76l1.04,6.39c-2.03,0.43-3.85,0.64-5.46,0.64c-2.62,0-4.65-0.42-6.1-1.25
				c-1.44-0.83-2.46-1.92-3.05-3.27c-0.59-1.35-0.88-4.2-0.88-8.54V62.17h-5.3v-5.63h5.3V45.98l7.18-4.34v14.91h7.26v5.63h-7.26
				v24.96c0,2.06,0.13,3.39,0.38,3.98c0.25,0.59,0.67,1.06,1.24,1.41c0.58,0.35,1.4,0.52,2.47,0.52
				C675.81,93.04,676.87,92.95,678.18,92.76z"/>
			<path class="st0" d="M682.55,78.78c0-7.9,2.19-13.76,6.58-17.56c3.66-3.16,8.13-4.74,13.4-4.74c5.86,0,10.65,1.92,14.36,5.77
				c3.72,3.84,5.58,9.16,5.58,15.94c0,5.49-0.82,9.81-2.47,12.96c-1.64,3.15-4.04,5.59-7.18,7.33c-3.14,1.74-6.57,2.61-10.29,2.61
				c-5.97,0-10.79-1.92-14.46-5.75C684.39,91.51,682.55,85.99,682.55,78.78z M689.98,78.78c0,5.47,1.19,9.56,3.57,12.28
				c2.38,2.72,5.38,4.08,8.99,4.08c3.58,0,6.57-1.37,8.95-4.1c2.38-2.73,3.57-6.9,3.57-12.5c0-5.28-1.2-9.28-3.59-12
				c-2.4-2.72-5.37-4.08-8.93-4.08c-3.61,0-6.61,1.35-8.99,4.06S689.98,73.32,689.98,78.78z"/>
			<path class="st0" d="M729.3,100.13V57.44h6.5v6.07c3.13-4.69,7.65-7.04,13.56-7.04c2.57,0,4.93,0.46,7.08,1.39
				c2.15,0.92,3.77,2.14,4.83,3.64c1.07,1.5,1.82,3.28,2.25,5.35c0.27,1.34,0.4,3.68,0.4,7.03v26.25h-7.22V74.16
				c0-2.95-0.28-5.15-0.84-6.61c-0.56-1.46-1.56-2.63-2.99-3.5c-1.43-0.87-3.11-1.31-5.04-1.31c-3.08,0-5.73,0.98-7.96,2.93
				c-2.23,1.96-3.35,5.67-3.35,11.13v23.31H729.3z"/>
		</g>
	</g>
</g>
</svg>
